<?xml version="1.0" standalone="no"?>
<!DOCTYPE svg PUBLIC "-//W3C//DTD SVG 20010904//EN"
 "http://www.w3.org/TR/2001/REC-SVG-20010904/DTD/svg10.dtd">
<svg version="1.0" xmlns="http://www.w3.org/2000/svg"
 width="640.000000pt" height="1280.000000pt" viewBox="0 0 640.000000 1280.000000"
 preserveAspectRatio="xMidYMid meet">
<metadata>
Created by potrace 1.15, written by Peter Selinger 2001-2017
</metadata>
<g transform="translate(0.000000,1280.000000) scale(0.100000,-0.100000)"
fill="#000000" stroke="none">
<path d="M2935 12789 c-1137 -106 -2099 -850 -2490 -1926 -160 -438 -210 -945
-139 -1418 122 -822 588 -1551 1284 -2009 69 -46 152 -97 185 -116 33 -18 61
-33 63 -35 1 -1 -79 -194 -178 -429 -175 -413 -181 -428 -165 -452 18 -29 10
-28 270 -9 110 8 210 15 223 15 l22 0 0 -2703 c0 -2147 3 -2707 13 -2719 6 -9
275 -235 596 -502 360 -300 592 -486 604 -486 15 0 171 152 497 481 261 265
479 488 483 495 4 8 3 23 -3 33 -5 11 -120 150 -255 308 -135 158 -245 290
-245 293 0 3 112 136 249 297 137 161 252 300 255 310 9 22 4 28 -264 343
-124 146 -229 271 -233 277 -5 8 53 84 160 210 312 366 343 404 343 418 0 8
-115 149 -256 315 -227 267 -254 303 -242 318 7 9 116 138 241 285 255 301
260 307 251 331 -4 10 -150 149 -325 311 l-318 294 450 402 c368 331 449 408
449 429 0 14 -24 78 -54 143 l-54 117 36 0 c21 0 133 -7 250 -16 118 -9 225
-13 238 -10 49 13 43 35 -144 476 l-179 424 86 49 c391 222 747 555 996 932
544 822 635 1860 245 2772 -93 215 -251 479 -406 673 -87 109 -335 357 -444
444 -416 331 -887 535 -1425 617 -152 23 -513 33 -670 18z m448 -660 c184 -37
322 -108 459 -238 198 -187 298 -416 299 -681 1 -268 -90 -490 -275 -676 -437
-436 -1166 -346 -1482 184 -97 161 -139 328 -131 522 10 256 109 476 289 646
151 142 320 223 538 257 72 12 210 5 303 -14z m-885 -5368 c18 -12 41 -40 52
-61 20 -39 20 -67 18 -3038 l-3 -3000 -168 140 -167 140 2 2866 3 2867 23 38
c13 21 40 46 60 57 50 27 136 23 180 -9z m517 -353 c3 -7 4 -1387 3 -3066 l-3
-3053 -167 138 -167 138 0 2928 -1 2927 165 0 c123 0 167 -3 170 -12z m1030
-263 c47 -111 75 -189 69 -195 -5 -4 -110 -99 -234 -210 l-225 -201 -3 383
c-1 211 0 389 3 395 3 10 44 13 158 13 l154 0 78 -185z"/>
</g>
</svg>
