<?xml version="1.0" encoding="UTF-8" standalone="no"?>
<svg
   version="1.1"
   x="0px"
   y="0px"
   viewBox="0 0 100 100"
   enable-background="new 0 0 100 100"
   xml:space="preserve"
   id="svg4"
   sodipodi:docname="micSel.svg"
   inkscape:version="1.1.2 (0a00cf5339, 2022-02-04)"
   xmlns:inkscape="http://www.inkscape.org/namespaces/inkscape"
   xmlns:sodipodi="http://sodipodi.sourceforge.net/DTD/sodipodi-0.dtd"
   xmlns="http://www.w3.org/2000/svg"
   xmlns:svg="http://www.w3.org/2000/svg"><defs
     id="defs8"><marker
       style="overflow:visible;"
       id="Arrow1Mend"
       refX="0.0"
       refY="0.0"
       orient="auto"
       inkscape:stockid="Arrow1Mend"
       inkscape:isstock="true"><path
         transform="scale(0.4) rotate(180) translate(10,0)"
         style="fill-rule:evenodd;fill:context-stroke;stroke:context-stroke;stroke-width:1.0pt;"
         d="M 0.0,0.0 L 5.0,-5.0 L -12.5,0.0 L 5.0,5.0 L 0.0,0.0 z "
         id="path6016" /></marker><marker
       style="overflow:visible;"
       id="marker7309"
       refX="0.0"
       refY="0.0"
       orient="auto"
       inkscape:stockid="Arrow1Send"
       inkscape:isstock="true"><path
         transform="scale(0.2) rotate(180) translate(6,0)"
         style="fill-rule:evenodd;fill:context-stroke;stroke:context-stroke;stroke-width:1.0pt;"
         d="M 0.0,0.0 L 5.0,-5.0 L -12.5,0.0 L 5.0,5.0 L 0.0,0.0 z "
         id="path7307" /></marker><marker
       style="overflow:visible;"
       id="Arrow1Send"
       refX="0.0"
       refY="0.0"
       orient="auto"
       inkscape:stockid="Arrow1Send"
       inkscape:isstock="true"><path
         transform="scale(0.2) rotate(180) translate(6,0)"
         style="fill-rule:evenodd;fill:context-stroke;stroke:context-stroke;stroke-width:1.0pt;"
         d="M 0.0,0.0 L 5.0,-5.0 L -12.5,0.0 L 5.0,5.0 L 0.0,0.0 z "
         id="path6022" /></marker><marker
       style="overflow:visible;"
       id="Arrow2Lend"
       refX="0.0"
       refY="0.0"
       orient="auto"
       inkscape:stockid="Arrow2Lend"
       inkscape:isstock="true"><path
         transform="scale(1.1) rotate(180) translate(1,0)"
         d="M 8.7185878,4.0337352 L -2.2072895,0.016013256 L 8.7185884,-4.0017078 C 6.9730900,-1.6296469 6.9831476,1.6157441 8.7185878,4.0337352 z "
         style="stroke:context-stroke;fill-rule:evenodd;fill:context-stroke;stroke-width:0.62500000;stroke-linejoin:round;"
         id="path6028" /></marker><marker
       style="overflow:visible"
       id="Arrow2Lstart"
       refX="0.0"
       refY="0.0"
       orient="auto"
       inkscape:stockid="Arrow2Lstart"
       inkscape:isstock="true"><path
         transform="scale(1.1) translate(1,0)"
         d="M 8.7185878,4.0337352 L -2.2072895,0.016013256 L 8.7185884,-4.0017078 C 6.9730900,-1.6296469 6.9831476,1.6157441 8.7185878,4.0337352 z "
         style="stroke:context-stroke;fill-rule:evenodd;fill:context-stroke;stroke-width:0.62500000;stroke-linejoin:round"
         id="path6025" /></marker><marker
       style="overflow:visible"
       id="marker6277"
       refX="0.0"
       refY="0.0"
       orient="auto"
       inkscape:stockid="Arrow1Lstart"
       inkscape:isstock="true"><path
         transform="scale(0.8) translate(12.5,0)"
         style="fill-rule:evenodd;fill:context-stroke;stroke:context-stroke;stroke-width:1.0pt"
         d="M 0.0,0.0 L 5.0,-5.0 L -12.5,0.0 L 5.0,5.0 L 0.0,0.0 z "
         id="path6275" /></marker><marker
       style="overflow:visible"
       id="Arrow1Lstart"
       refX="0.0"
       refY="0.0"
       orient="auto"
       inkscape:stockid="Arrow1Lstart"
       inkscape:isstock="true"><path
         transform="scale(0.8) translate(12.5,0)"
         style="fill-rule:evenodd;fill:context-stroke;stroke:context-stroke;stroke-width:1.0pt"
         d="M 0.0,0.0 L 5.0,-5.0 L -12.5,0.0 L 5.0,5.0 L 0.0,0.0 z "
         id="path6007" /></marker></defs><sodipodi:namedview
     id="namedview6"
     pagecolor="#ffffff"
     bordercolor="#666666"
     borderopacity="1.0"
     inkscape:pageshadow="2"
     inkscape:pageopacity="0.0"
     inkscape:pagecheckerboard="0"
     showgrid="false"
     inkscape:zoom="6.3"
     inkscape:cx="21.190476"
     inkscape:cy="52.380952"
     inkscape:window-width="1920"
     inkscape:window-height="1016"
     inkscape:window-x="0"
     inkscape:window-y="0"
     inkscape:window-maximized="1"
     inkscape:current-layer="svg4" /><path
     d="m 40.44463,60.450094 c -1.165576,0 -2.136888,0.871553 -2.136888,1.992122 v 5.167066 c 0,7.843981 -6.669681,14.380631 -14.958216,14.380631 -8.288535,0 -15.0877234,-6.53665 -15.0877234,-14.380631 v -5.167066 c 0,-1.120569 -0.971313,-1.992122 -2.136888,-1.992122 -1.165575,0 -2.0721341,0.871553 -2.0721341,1.992122 v 5.167066 c 0,9.46258 7.5762395,17.244307 17.1598575,18.302622 0,0 0,0.06225 0,0.06225 v 6.474397 h -8.353289 c -1.165575,0 -2.072133,0.933807 -2.072133,2.054376 0,1.120569 0.906558,1.992122 2.072133,1.992122 h 20.786092 c 1.165575,0 2.072133,-0.871553 2.072133,-1.992122 0,-1.120569 -0.906558,-2.054376 -2.072133,-2.054376 h -8.288535 v -6.412143 c 0,-0.06225 0,-0.06225 0,-0.06225 9.583618,-1.120568 17.159857,-8.902295 17.159857,-18.364875 v -5.167066 c 0,-1.058315 -0.971312,-1.992122 -2.072133,-1.992122 z M 23.284772,78.379192 c 6.34591,0 11.396736,-4.980305 11.396736,-11.018925 l 0.06475,-15.874723 c 0,-6.03862 -5.050826,-11.018925 -11.396736,-11.018925 -6.345909,0 -11.526244,4.980305 -11.526244,11.081179 v 15.874723 c -0.06475,6.03862 5.115581,10.956671 11.46149,10.956671 z"
     id="path2"
     style="opacity:1;fill:#7c7c7c;fill-opacity:1;stroke-width:0.634917" /><path
     d="m 59.458482,39.5797 c -1.165576,0 -2.136888,0.871553 -2.136888,1.992122 v 5.167066 c 0,7.843981 -6.669681,14.380631 -14.958216,14.380631 -8.288535,0 -15.087723,-6.53665 -15.087723,-14.380631 v -5.167066 c 0,-1.120569 -0.971313,-1.992122 -2.136888,-1.992122 -1.165575,0 -2.072134,0.871553 -2.072134,1.992122 v 5.167066 c 0,9.46258 7.576239,17.244307 17.159857,18.302622 0,0 0,0.06225 0,0.06225 v 6.474397 h -8.353289 c -1.165575,0 -2.072133,0.933807 -2.072133,2.054376 0,1.120569 0.906558,1.992122 2.072133,1.992122 h 20.786092 c 1.165575,0 2.072133,-0.871553 2.072133,-1.992122 0,-1.120569 -0.906558,-2.054376 -2.072133,-2.054376 h -8.288535 v -6.412143 c 0,-0.06225 0,-0.06225 0,-0.06225 9.583618,-1.120568 17.159857,-8.902295 17.159857,-18.364875 v -5.167066 c 0,-1.058315 -0.971312,-1.992122 -2.072133,-1.992123 z M 42.298624,57.508798 c 6.34591,0 11.396736,-4.980305 11.396736,-11.018925 L 53.76011,30.61515 c 0,-6.03862 -5.050826,-11.018925 -11.396736,-11.018925 -6.345909,0 -11.526244,4.980305 -11.526244,11.081179 v 15.874723 c -0.06475,6.03862 5.115581,10.956671 11.46149,10.956671 z"
     id="path2-3"
     style="opacity:1;fill:#545454;fill-opacity:1;stroke-width:0.634917" /><path
     d="m 86.856677,22.416894 c -1.165576,0 -2.136888,0.871553 -2.136888,1.992122 v 5.167066 c 0,7.843981 -6.669681,14.380631 -14.958216,14.380631 -8.288535,0 -15.087723,-6.53665 -15.087723,-14.380631 v -5.167066 c 0,-1.120569 -0.971313,-1.992122 -2.136888,-1.992122 -1.165575,0 -2.072134,0.871553 -2.072134,1.992122 v 5.167066 c 0,9.46258 7.576239,17.244307 17.159857,18.302622 0,0 0,0.06225 0,0.06225 v 6.474397 h -8.353289 c -1.165575,0 -2.072133,0.933807 -2.072133,2.054376 0,1.120569 0.906558,1.992122 2.072133,1.992122 h 20.786092 c 1.165575,0 2.072133,-0.871553 2.072133,-1.992122 0,-1.120569 -0.906558,-2.054376 -2.072133,-2.054376 h -8.288535 v -6.412143 c 0,-0.06225 0,-0.06225 0,-0.06225 C 81.352571,46.82039 88.92881,39.038663 88.92881,29.576083 v -5.167066 c 0,-1.058315 -0.971312,-1.992122 -2.072133,-1.992123 z M 69.696819,40.345992 c 6.34591,0 11.396736,-4.980305 11.396736,-11.018925 l 0.06475,-15.874723 c 0,-6.0386201 -5.050826,-11.0189251 -11.396736,-11.0189251 -6.345909,0 -11.526244,4.980305 -11.526244,11.0811791 v 15.874723 c -0.06475,6.03862 5.115581,10.956671 11.46149,10.956671 z"
     id="path2-6"
     style="stroke-width:0.634917" /><path
     style="fill:none;stroke:#000000;stroke-width:0;stroke-linecap:butt;stroke-linejoin:miter;stroke-opacity:1;stroke-miterlimit:4;stroke-dasharray:none"
     d="m 86.667655,91.537388 -25.892974,-22.002553 0.177448,4.786638 5.134665,-5.026177 -5.50881,0.09583"
     id="path5532" /><ellipse
     style="opacity:1;fill:#000000;fill-opacity:1;stroke-width:0;stroke-miterlimit:4;stroke-dasharray:none"
     id="path6323"
     cx="85.666649"
     cy="90.042412"
     rx="5.338726"
     ry="5.4825749" /><path
     style="fill:none;fill-rule:evenodd;stroke:#000000;stroke-width:3.50879;stroke-linecap:butt;stroke-linejoin:miter;stroke-miterlimit:4;stroke-dasharray:none;stroke-opacity:1;marker-end:url(#Arrow1Mend)"
     d="M 81.574856,87.247432 60.725202,69.536839"
     id="path7273"
     inkscape:connector-type="polyline"
     inkscape:connector-curvature="0" /></svg>
